<svg width="32" height="32" viewBox="0 0 32 32" fill="none" xmlns="http://www.w3.org/2000/svg">
  <!-- Background circle -->
  <circle cx="16" cy="16" r="16" fill="#4F46E5"/>
  
  <!-- Network nodes -->
  <circle cx="10" cy="10" r="2" fill="#FFFFFF"/>
  <circle cx="22" cy="10" r="2" fill="#FFFFFF"/>
  <circle cx="16" cy="16" r="2.5" fill="#FFFFFF"/>
  <circle cx="8" cy="22" r="2" fill="#FFFFFF"/>
  <circle cx="24" cy="22" r="2" fill="#FFFFFF"/>
  
  <!-- Network connections -->
  <line x1="10" y1="10" x2="16" y2="16" stroke="#FFFFFF" stroke-width="1.5" stroke-linecap="round"/>
  <line x1="22" y1="10" x2="16" y2="16" stroke="#FFFFFF" stroke-width="1.5" stroke-linecap="round"/>
  <line x1="16" y1="16" x2="8" y2="22" stroke="#FFFFFF" stroke-width="1.5" stroke-linecap="round"/>
  <line x1="16" y1="16" x2="24" y2="22" stroke="#FFFFFF" stroke-width="1.5" stroke-linecap="round"/>
  
  <!-- Signal waves -->
  <path d="M12 16C12 14.9 12.9 14 14 14C15.1 14 16 14.9 16 16" stroke="#FFFFFF" stroke-width="1" fill="none" stroke-linecap="round"/>
  <path d="M10 16C10 13.8 11.8 12 14 12C16.2 12 18 13.8 18 16" stroke="#FFFFFF" stroke-width="0.8" fill="none" stroke-linecap="round"/>
</svg>